<svg id="レイヤー_1" data-name="レイヤー 1" xmlns="http://www.w3.org/2000/svg" viewBox="0 0 901.85 936"><defs><style>.cls-1{fill:none;}.cls-2{fill:#1a1a1a;}</style></defs><title>qux_logo</title><path class="cls-1" d="M795.13,500c0-168.76-132.29-306.05-294.89-306.05S205.35,331.24,205.35,500,337.64,806.05,500.24,806.05,795.13,668.76,795.13,500Z" transform="translate(-49.31 -32)"/><path class="cls-2" d="M951.17,500c0-275.68-230.86-496.46-502.48-465C241.83,58.94,75.27,231.81,52.19,446.5,21.9,728.39,234.62,968,500.24,968H933.41c9.81,0,17.76-8.25,17.76-18.43V834.83c0-10.18-8-18.43-17.76-18.43H832.15C906,733,951.17,621.9,951.17,500Zm-745.82,0c0-168.76,132.29-306.05,294.89-306.05S795.13,331.24,795.13,500,662.84,806.05,500.24,806.05,205.35,668.76,205.35,500Z" transform="translate(-49.31 -32)"/></svg>