<?xml version="1.0" encoding="utf-8"?>
<!-- Generator: Adobe Illustrator 21.1.0, SVG Export Plug-In . SVG Version: 6.00 Build 0)  -->
<svg version="1.1" id="レイヤー_1" xmlns="http://www.w3.org/2000/svg" xmlns:xlink="http://www.w3.org/1999/xlink" x="0px"
	 y="0px" viewBox="0 0 1000 500" style="enable-background:new 0 0 1000 500;" xml:space="preserve">
<style type="text/css">
	.st0{fill:#1A1A1A;}
</style>
<g>
	<g>
		<path class="st0" d="M385.3,248.9c0-114.8-98.7-206.7-214.8-193.6C82.1,65.3,10.9,137.3,1.1,226.7C-11.9,344,79,443.8,192.6,443.8
			h185.1c4.2,0,7.6-3.4,7.6-7.7v-47.8c0-4.2-3.4-7.7-7.6-7.7h-43.3C366,346,385.3,299.7,385.3,248.9z M66.5,248.9
			c0-70.3,56.5-127.4,126-127.4s126,57.2,126,127.4s-56.5,127.4-126,127.4S66.5,319.2,66.5,248.9z"/>
	</g>
	<path class="st0" d="M823.7,305.4l-79.1-107c-3.7-5.1-0.2-12.3,6.1-12.3h58.4c2.5,0,4.9,1.3,6.3,3.4l48.7,73.9l53-74.2
		c1.4-2,3.7-3.2,6.2-3.2h53.9c6.2,0,9.8,7.2,6.1,12.2l-78.2,107l93.5,126.3c3.7,5.1,0.2,12.3-6.1,12.3h-58.5c-2.4,0-4.7-1.2-6.1-3.2
		l-64.1-89.2l-64.7,89.2c-1.4,2-3.7,3.1-6.1,3.1h-56.4c-6.2,0-9.8-7.2-6.1-12.3L823.7,305.4z"/>
	<path class="st0" d="M510.2,186.1c4.2,0,7.6,3.4,7.6,7.7v136.5c0,42.4,15.8,62.8,48.9,62.8c33.1,0,48.9-20.4,48.9-62.8V193.8
		c0-4.2,3.4-7.7,7.6-7.7h44c4.2,0,7.6,3.4,7.6,7.7v137.8c0,20.5-2.5,38.2-7.5,53c-4.8,13.3-13.2,25.3-25.2,36
		c-19.7,17.3-44.9,26-75.3,26c-30.3,0-55.3-8.7-75.1-26c-12.1-10.7-20.7-22.7-25.7-36c-4.8-11.9-7.3-29.6-7.3-53V193.8
		c0-4.2,3.4-7.7,7.6-7.7H510.2z"/>
</g>
</svg>
